<mxfile host="Electron" modified="2023-05-28T04:14:17.842Z" agent="Mozilla/5.0 (Windows NT 10.0; Win64; x64) AppleWebKit/537.36 (KHTML, like Gecko) draw.io/21.2.8 Chrome/112.0.5615.165 Electron/24.2.0 Safari/537.36" etag="tbzbwV0a-7J77PcdikL-" version="21.2.8" type="device">
  <diagram name="Page-1" id="4Y0VP7VvQs0ShmBBsXc2">
    <mxGraphModel dx="792" dy="838" grid="1" gridSize="10" guides="1" tooltips="1" connect="1" arrows="1" fold="1" page="1" pageScale="1" pageWidth="850" pageHeight="1100" math="0" shadow="0">
      <root>
        <mxCell id="0" />
        <mxCell id="1" parent="0" />
        <mxCell id="XlPSTFplm6EyxE-NLSZi-18" value="Federation through&lt;br&gt;Third Party Identity Provider (IdP)" style="rounded=0;whiteSpace=wrap;html=1;labelPosition=center;verticalLabelPosition=bottom;align=center;verticalAlign=top;" parent="1" vertex="1">
          <mxGeometry x="980" y="213" width="210" height="192" as="geometry" />
        </mxCell>
        <mxCell id="XlPSTFplm6EyxE-NLSZi-8" style="edgeStyle=orthogonalEdgeStyle;rounded=0;orthogonalLoop=1;jettySize=auto;html=1;entryX=0;entryY=0.25;entryDx=0;entryDy=0;entryPerimeter=0;startArrow=classic;startFill=1;" parent="1" source="XlPSTFplm6EyxE-NLSZi-1" target="XlPSTFplm6EyxE-NLSZi-3" edge="1">
          <mxGeometry relative="1" as="geometry">
            <Array as="points">
              <mxPoint x="550" y="209" />
              <mxPoint x="550" y="290" />
            </Array>
          </mxGeometry>
        </mxCell>
        <mxCell id="XlPSTFplm6EyxE-NLSZi-1" value="Mobile applications" style="sketch=0;outlineConnect=0;fontColor=#232F3E;gradientColor=none;fillColor=#232F3D;strokeColor=none;dashed=0;verticalLabelPosition=bottom;verticalAlign=top;align=center;html=1;fontSize=12;fontStyle=0;aspect=fixed;pointerEvents=1;shape=mxgraph.aws4.mobile_client;" parent="1" vertex="1">
          <mxGeometry x="340.5" y="170" width="41" height="78" as="geometry" />
        </mxCell>
        <mxCell id="XlPSTFplm6EyxE-NLSZi-9" style="edgeStyle=orthogonalEdgeStyle;rounded=0;orthogonalLoop=1;jettySize=auto;html=1;entryX=0;entryY=0.75;entryDx=0;entryDy=0;entryPerimeter=0;startArrow=classic;startFill=1;" parent="1" source="XlPSTFplm6EyxE-NLSZi-2" target="XlPSTFplm6EyxE-NLSZi-3" edge="1">
          <mxGeometry relative="1" as="geometry">
            <Array as="points">
              <mxPoint x="550" y="398" />
              <mxPoint x="550" y="329" />
            </Array>
          </mxGeometry>
        </mxCell>
        <mxCell id="XlPSTFplm6EyxE-NLSZi-2" value="Web applications" style="sketch=0;outlineConnect=0;fontColor=#232F3E;gradientColor=none;fillColor=#232F3D;strokeColor=none;dashed=0;verticalLabelPosition=bottom;verticalAlign=top;align=center;html=1;fontSize=12;fontStyle=0;aspect=fixed;pointerEvents=1;shape=mxgraph.aws4.client;" parent="1" vertex="1">
          <mxGeometry x="322" y="360" width="78" height="76" as="geometry" />
        </mxCell>
        <mxCell id="XlPSTFplm6EyxE-NLSZi-10" style="edgeStyle=orthogonalEdgeStyle;rounded=0;orthogonalLoop=1;jettySize=auto;html=1;" parent="1" source="XlPSTFplm6EyxE-NLSZi-3" target="XlPSTFplm6EyxE-NLSZi-4" edge="1">
          <mxGeometry relative="1" as="geometry" />
        </mxCell>
        <mxCell id="XlPSTFplm6EyxE-NLSZi-19" style="edgeStyle=orthogonalEdgeStyle;rounded=0;orthogonalLoop=1;jettySize=auto;html=1;entryX=0;entryY=0.5;entryDx=0;entryDy=0;startArrow=classic;startFill=1;" parent="1" source="XlPSTFplm6EyxE-NLSZi-3" target="XlPSTFplm6EyxE-NLSZi-18" edge="1">
          <mxGeometry relative="1" as="geometry" />
        </mxCell>
        <mxCell id="XlPSTFplm6EyxE-NLSZi-3" value="Cognito User Pools" style="sketch=0;points=[[0,0,0],[0.25,0,0],[0.5,0,0],[0.75,0,0],[1,0,0],[0,1,0],[0.25,1,0],[0.5,1,0],[0.75,1,0],[1,1,0],[0,0.25,0],[0,0.5,0],[0,0.75,0],[1,0.25,0],[1,0.5,0],[1,0.75,0]];outlineConnect=0;fontColor=#232F3E;gradientColor=#F54749;gradientDirection=north;fillColor=#C7131F;strokeColor=#ffffff;dashed=0;verticalLabelPosition=top;verticalAlign=bottom;align=center;html=1;fontSize=12;fontStyle=0;aspect=fixed;shape=mxgraph.aws4.resourceIcon;resIcon=mxgraph.aws4.cognito;labelPosition=center;spacingBottom=10;" parent="1" vertex="1">
          <mxGeometry x="760" y="270" width="78" height="78" as="geometry" />
        </mxCell>
        <mxCell id="XlPSTFplm6EyxE-NLSZi-4" value="Database of users" style="sketch=0;outlineConnect=0;fontColor=#232F3E;gradientColor=none;fillColor=#232F3D;strokeColor=none;dashed=0;verticalLabelPosition=bottom;verticalAlign=top;align=center;html=1;fontSize=12;fontStyle=0;aspect=fixed;pointerEvents=1;shape=mxgraph.aws4.generic_database;" parent="1" vertex="1">
          <mxGeometry x="769.5" y="472" width="59" height="78" as="geometry" />
        </mxCell>
        <mxCell id="XlPSTFplm6EyxE-NLSZi-11" value="Login" style="text;html=1;align=center;verticalAlign=middle;resizable=0;points=[];autosize=1;strokeColor=none;fillColor=none;" parent="1" vertex="1">
          <mxGeometry x="630" y="330" width="50" height="30" as="geometry" />
        </mxCell>
        <mxCell id="XlPSTFplm6EyxE-NLSZi-12" value="Returns JSON Web Token (JWT)" style="text;html=1;align=center;verticalAlign=middle;resizable=0;points=[];autosize=1;strokeColor=none;fillColor=none;" parent="1" vertex="1">
          <mxGeometry x="560" y="260" width="200" height="30" as="geometry" />
        </mxCell>
        <mxCell id="XlPSTFplm6EyxE-NLSZi-13" value="" style="dashed=0;outlineConnect=0;html=1;align=center;labelPosition=center;verticalLabelPosition=bottom;verticalAlign=top;shape=mxgraph.webicons.facebook;fillColor=#6294E4;gradientColor=#1A2665" parent="1" vertex="1">
          <mxGeometry x="997.2" y="225" width="66.2" height="66.2" as="geometry" />
        </mxCell>
        <mxCell id="XlPSTFplm6EyxE-NLSZi-14" value="" style="dashed=0;outlineConnect=0;html=1;align=center;labelPosition=center;verticalLabelPosition=bottom;verticalAlign=top;shape=mxgraph.weblogos.google" parent="1" vertex="1">
          <mxGeometry x="997.2" y="315" width="65.2" height="69.4" as="geometry" />
        </mxCell>
        <mxCell id="XlPSTFplm6EyxE-NLSZi-15" value="" style="shape=image;verticalLabelPosition=bottom;labelBackgroundColor=default;verticalAlign=top;aspect=fixed;imageAspect=0;image=https://docs.csiinc.com/files/1245479/34898553/1/1592856217967/saml-logo.png;" parent="1" vertex="1">
          <mxGeometry x="1080" y="319.7" width="96.05" height="60" as="geometry" />
        </mxCell>
        <mxCell id="XlPSTFplm6EyxE-NLSZi-17" value="" style="shape=image;verticalLabelPosition=bottom;labelBackgroundColor=default;verticalAlign=top;aspect=fixed;imageAspect=0;image=https://logonoid.com/images/openid-logo.png;" parent="1" vertex="1">
          <mxGeometry x="1104.07" y="231.2" width="60" height="60" as="geometry" />
        </mxCell>
      </root>
    </mxGraphModel>
  </diagram>
</mxfile>
